<svg width="1024" height="1024" viewBox="0 0 1024 1024" fill="none" xmlns="http://www.w3.org/2000/svg">
  <defs>
    <linearGradient id="bg" x1="140" y1="96" x2="904" y2="944" gradientUnits="userSpaceOnUse">
      <stop offset="0" stop-color="#242C28"/>
      <stop offset="1" stop-color="#121614"/>
    </linearGradient>
    <radialGradient id="glow" cx="0" cy="0" r="1" gradientUnits="userSpaceOnUse" gradientTransform="translate(304 262) rotate(38.4) scale(654 610)">
      <stop offset="0" stop-color="#C8D1CC" stop-opacity="0.16"/>
      <stop offset="1" stop-color="#C8D1CC" stop-opacity="0"/>
    </radialGradient>
    <linearGradient id="barMain" x1="512" y1="310" x2="512" y2="838" gradientUnits="userSpaceOnUse">
      <stop offset="0" stop-color="#F2F5F2"/>
      <stop offset="1" stop-color="#D2D8D3"/>
    </linearGradient>
    <linearGradient id="barAccent" x1="512" y1="310" x2="512" y2="838" gradientUnits="userSpaceOnUse">
      <stop offset="0" stop-color="#7CFFB1"/>
      <stop offset="1" stop-color="#34C472"/>
    </linearGradient>
    <filter id="shadow" x="77" y="92" width="870" height="876" filterUnits="userSpaceOnUse" color-interpolation-filters="sRGB">
      <feFlood flood-opacity="0" result="BackgroundImageFix"/>
      <feColorMatrix in="SourceAlpha" type="matrix" values="0 0 0 0 0 0 0 0 0 0 0 0 0 0 0 0 0 0 127 0" result="hardAlpha"/>
      <feOffset dy="24"/>
      <feGaussianBlur stdDeviation="34"/>
      <feComposite in2="hardAlpha" operator="out"/>
      <feColorMatrix type="matrix" values="0 0 0 0 0.03 0 0 0 0 0.05 0 0 0 0 0.04 0 0 0 0.38 0"/>
      <feBlend mode="normal" in2="BackgroundImageFix" result="effect1_dropShadow_1_2"/>
      <feBlend mode="normal" in="SourceGraphic" in2="effect1_dropShadow_1_2" result="shape"/>
    </filter>
  </defs>
  <rect x="64" y="64" width="896" height="896" rx="224" fill="url(#bg)"/>
  <rect x="64" y="64" width="896" height="896" rx="224" fill="url(#glow)"/>
  <g filter="url(#shadow)">
    <rect x="184" y="176" width="656" height="68" rx="34" fill="#F2F5F2" fill-opacity="0.92"/>
    <circle cx="792" cy="210" r="10" fill="#121614" fill-opacity="0.46"/>
    <circle cx="756" cy="210" r="10" fill="#121614" fill-opacity="0.24"/>
    <circle cx="720" cy="210" r="10" fill="#121614" fill-opacity="0.16"/>

    <rect x="200" y="318" width="104" height="412" rx="52" fill="url(#barMain)"/>
    <rect x="344" y="318" width="104" height="300" rx="52" fill="url(#barMain)"/>
    <rect x="488" y="318" width="104" height="520" rx="52" fill="url(#barAccent)"/>
    <rect x="632" y="318" width="104" height="356" rx="52" fill="url(#barMain)"/>
    <rect x="776" y="318" width="48" height="204" rx="24" fill="#F2F5F2" fill-opacity="0.76"/>

    <rect x="184" y="780" width="592" height="24" rx="12" fill="#F2F5F2" fill-opacity="0.12"/>
    <circle cx="812" cy="792" r="28" fill="#7CFFB1" fill-opacity="0.94"/>
    <circle cx="812" cy="792" r="52" fill="#7CFFB1" fill-opacity="0.12"/>
  </g>
</svg>
